<?xml version="1.0" encoding="UTF-8"?>
<svg width="640" height="479.99999999999994" xmlns="http://www.w3.org/2000/svg" xmlns:svg="http://www.w3.org/2000/svg">
 <!-- Created with SVG-edit - http://svg-edit.googlecode.com/ -->

 <g>
  <title>Layer 1</title>
  <path id="svg_3" d="m-422.270538,89.796158l0.782227,0.000298l-0.025391,0.037521l-0.731171,-0.0009l-0.025665,-0.036919l0,0zm0.005371,-0.499046l0.77179,-0.000893l0.022369,0.038483l-0.816864,0.000298l0.022705,-0.037888zm-0.076172,0.250069l0.923523,-0.0009l-0.001221,0.03849l-0.921692,-0.000603l-0.00061,-0.036987l0,0zm0.924286,0.003563c0,0.254791 -0.207306,0.462051 -0.462189,0.462051c-0.25473,0 -0.462006,-0.207306 -0.462006,-0.462051c0,-0.254745 0.207306,-0.462013 0.462006,-0.462013c0.254883,-0.000038 0.462189,0.207268 0.462189,0.462013zm-0.462128,-0.499046c-0.275085,0 -0.498932,0.223854 -0.498932,0.499016c0,0.275192 0.223846,0.499039 0.498932,0.499039c0.275238,0 0.499023,-0.223846 0.499023,-0.499039c0,-0.275162 -0.223785,-0.499016 -0.499023,-0.499016zm0.140015,0.499046c0,0.272263 -0.073792,0.462051 -0.140015,0.462051c-0.066193,0 -0.139954,-0.189789 -0.139954,-0.462051c0,-0.272331 0.07373,-0.462013 0.139954,-0.462013c0.066193,-0.000038 0.140015,0.189682 0.140015,0.462013zm-0.140015,-0.499046c-0.114929,0 -0.176941,0.257126 -0.176941,0.499016c0,0.241959 0.062012,0.499039 0.176941,0.499039c0.114899,0 0.177032,-0.257126 0.177032,-0.499039c-0.000031,-0.24189 -0.062134,-0.499016 -0.177032,-0.499016zm0.327911,0.499046c0,0.254791 -0.147156,0.462051 -0.327911,0.462051c-0.180725,0 -0.327789,-0.207306 -0.327789,-0.462051c0,-0.254745 0.147064,-0.462013 0.327789,-0.462013c0.180756,-0.000038 0.327911,0.207268 0.327911,0.462013zm-0.327911,-0.499046c-0.201111,0 -0.364807,0.223854 -0.364807,0.499016c0,0.275192 0.163696,0.499039 0.364807,0.499039c0.201141,0 0.364838,-0.223846 0.364838,-0.499039c0,-0.275162 -0.163696,-0.499016 -0.364838,-0.499016z" stroke-linecap="null" stroke-linejoin="null" stroke-dasharray="null" stroke="#000000" fill="#FF0000"/>
  <path class="sec1" transform="rotate(-90, 62.916, 37.6152)" id="svg_11" d="m28.918312,37.615242l14.571747,-29.142241l38.855225,0l14.569153,29.142241l-14.569153,29.141083l-38.855225,0l-14.571747,-29.141083z" stroke-linecap="null" stroke-linejoin="null" stroke-dasharray="null" stroke-width="null" stroke="#000000" fill="#aaffff"/>
  <path transform="rotate(-0.81411, 62.9121, 37.6152)" stroke-width="0.1" id="svg_6" d="m62.913033,18.065393c-11.725128,0 -21.228394,8.755981 -21.228394,19.552305c0,10.796173 9.503265,19.548218 21.228394,19.548218c11.722931,0 21.228363,-8.752045 21.228363,-19.548218c0,-10.796324 -9.505432,-19.552305 -21.228363,-19.552305zm4.611176,29.330351c-0.113708,0.086197 -0.267456,0.172485 -0.15152,0.27916c0.113617,0.102722 -0.1315,0.17659 -0.1315,0.225754s0.15152,0.332611 0.075684,0.451843c-0.075684,0.126999 -0.133636,0.299576 -0.191711,0.406174c-0.055573,0.102661 -0.189362,0.209549 -0.151428,0.365189c0.037903,0.156128 -0.151489,0.102676 -0.151489,0.26297c0,0.15593 0.169281,0.086258 0.131409,0.27916c-0.035736,0.192764 -0.131409,0.246399 -0.131409,0.381668c0,0.139496 0.093536,0.332489 0.093536,0.386002s-0.093536,0.229736 -0.225037,0.365356c-0.136047,0.139542 -0.227417,0.229828 -0.211792,0.311813c0.020111,0.090332 0.15152,0.197235 0.133728,0.250336c-0.02002,0.049469 -0.189453,0.225754 -0.169373,0.349014c0.02002,0.118942 0.187164,0.069748 0.225098,0.155884c0.037903,0.086395 -0.225098,0.156097 -0.113708,0.246613c0.113708,0.08606 0.267548,0.065628 0.227356,0.278992c-0.026794,0.147888 0.093597,0.21759 0.184998,0.2668c-1.301605,0.295639 -2.654419,0.472137 -4.056274,0.472137c-9.289154,0 -16.844452,-6.958099 -16.844452,-15.512909c0,-2.787308 0.813354,-5.402206 2.217499,-7.664091c0.113739,-0.057404 0.198395,-0.094391 0.249695,-0.082169c0.093597,0.016479 0.115845,0.139511 0.267365,0.172409c0.151581,0.037033 0.283081,-0.102676 0.378937,-0.15593c0.093597,-0.053467 0.169342,-0.262711 0.073578,-0.246323c-0.093689,0.020584 -0.341125,0 -0.341125,0s0.267548,-0.139603 0.267548,-0.2258s0.035645,-0.225739 0.189453,-0.279068c0.1492,-0.053421 0.1492,-0.020523 0.055573,0.188675c-0.095764,0.213577 0.189545,0.123322 0.303192,0.036987s0.189453,-0.016434 0.396698,-0.139511c0.209564,-0.123169 0.209564,-0.192871 0.323181,-0.192871c0.113647,0 0.323212,0.192871 0.436829,0.123016c0.111389,-0.069717 0.436829,0.086273 0.626221,0.086273c0.189453,0 0.795715,0.225677 0.911591,0.225677c0.113617,0 0.454681,0.123184 0.474701,0.34903c0.017853,0.229843 0.13147,0.209396 0.245178,0.209396s0.378784,0.090195 0.378784,0.176529c0,0.086212 -0.075745,0.439209 0.116028,0.525467c0.187134,0.086182 0.358734,0.225723 0.436737,0.192795c0.075836,-0.036804 0,-0.316025 -0.093628,-0.348877c-0.095764,-0.03688 -0.0401,-0.16008 -0.077972,-0.229904c-0.037872,-0.069702 0.115936,-0.069702 0.1716,0.053467c0.057983,0.123001 0.209473,0.348831 0.303101,0.348831c0.093597,0 0.305389,0.209412 0.247437,0.332443c-0.057983,0.123245 0.055725,0.295624 0.227325,0.295624c0.169464,0 0.378784,0.246292 0.45462,0.262817c0.075745,0.020432 0.171661,0.106735 0.171661,0.159927c0,0.053452 0.095856,0.349089 0.095856,0.472273c0,0.119049 -0.060211,0.607391 -0.078064,0.800415s0.151581,0.525345 0.340973,0.70195c0.189392,0.172272 0.358765,0.504791 0.474701,0.574783c0.113708,0.069702 0.189453,0.262619 0.358826,0.246231c0.171692,-0.01651 0.285248,0.106842 0.43692,0.348907c0.153717,0.246307 0.305237,0.644608 0.418945,0.68158c0.113708,0.032715 0.303009,0.155853 0.207336,0.246155c-0.093628,0.086273 -0.245209,0.279114 -0.075836,0.279114c0.171509,0 0.229492,-0.090378 0.360992,0.069748c0.13147,0.156082 0.305389,0.242218 0.283081,0.349045c-0.017792,0.106583 0.153809,0.139618 0.229553,0.155746c0.075775,0.020844 0.245117,0.332703 0.416718,0.193054c0.171692,-0.139435 -0.225098,-0.348801 -0.340942,-0.439117c-0.113556,-0.086258 0,-0.274979 -0.267395,-0.468048c-0.265289,-0.193054 -0.227417,-0.33252 -0.416809,-0.472076c-0.189362,-0.139603 -0.340973,-0.262756 -0.151581,-0.385895c0.189484,-0.122971 0.209564,0.123138 0.285248,0.279205c0.075836,0.156097 0.472534,0.471924 0.644135,0.611649c0.169373,0.139496 0.474701,0.628174 0.568329,0.628174s0.361053,0.279175 0.361053,0.279175s0.15152,0.225632 0.093628,0.295349c-0.055756,0.069885 0.078064,0.332626 0.209473,0.402328c0.1315,0.069748 0.666321,0.299805 0.742218,0.332504c0.075684,0.036987 0.224945,0.299728 0.436737,0.299728c0.207245,0 0.361084,0.016342 0.416809,0.069794c0.057831,0.05336 0.227264,0.262634 0.340973,0.139557c0.115875,-0.123108 0.1315,-0.176529 0.305267,-0.176529c0.169434,0 0.245117,0.123093 0.341125,0.209274c0.093445,0.090332 0.358734,0.316101 0.492554,0.299774c0.133636,-0.016312 0.303009,0.139694 0.398773,0.086121s0.247528,0.032883 0.321045,0.069855c0.078003,0.03688 0.340973,0.159958 0.325348,0.365189c-0.020111,0.213593 0.149261,0.262833 0.265228,0.316147c0.113708,0.053482 0.265198,0.176636 0.361053,0.262711c0.093628,0.086411 0.300781,0.102631 0.361053,0.156006c0.055664,0.053513 0.093536,0.156128 0.265228,0.069962c0.169373,-0.086334 0.133728,-0.242233 0.133728,-0.242233s0.189453,-0.03688 0.28299,0.0327c0.093628,0.069977 0.151611,0.2957 0.211731,0.332657c0.055664,0.032715 0.167114,0.295532 0.09137,0.484436c-0.073517,0.197021 -0.055664,0.385712 -0.133789,0.385712c-0.075684,0 -0.169312,0.230042 -0.282928,0.28331c-0.111481,0.049393 -0.416809,0.295486 -0.398956,0.381699c0.02002,0.086502 0.191711,0.349014 0.15152,0.472153c-0.035645,0.123062 -0.28299,0.26265 -0.22287,0.455765c0.053497,0.192947 0.454681,0.246002 0.470306,0.418671c0.020081,0.17659 0.305328,0.562271 0.343201,0.734756c0.037811,0.172409 0.358826,0.365494 0.358826,0.607559c0,0.250198 0.45694,0.406235 0.552704,0.422775c0.09137,0.016632 0.265198,0.172241 0.396698,0.225677s0.247437,0.156158 0.338837,0.299667s0.078064,0.34906 0.078064,0.402222c0,0.049561 -0.055817,0.591476 -0.1138,0.907425c-0.057892,0.316132 0.073608,0.557999 -0.0401,0.648438zm-12.255615,-16.251738c0.055634,0.016418 0.169342,0.123169 0.227325,0.123169c0.057983,0 0.340973,0.209244 0.416809,0.279099c0.077972,0.069794 0.077972,0.262833 -0.017792,0.279221s-0.151581,-0.192902 -0.171661,-0.279221c-0.017883,-0.086182 -0.209503,-0.086182 -0.303101,-0.139496c-0.095947,-0.053375 -0.307556,-0.311996 -0.151581,-0.262772zm24.455475,7.023787c-0.209381,0.246201 -0.189301,0.365295 -0.285156,0.385803c-0.093689,0.016342 0.095856,0.086227 0.131409,0.262772c0.033508,0.147705 -0.093597,0.299713 0.0914,0.439316c-0.708649,6.210648 -5.417999,11.341949 -11.707336,13.164886c-0.011139,-0.016586 -0.026764,-0.036987 -0.031311,-0.045242c-0.037811,-0.10704 -0.037811,-0.316177 0.093689,-0.38591c0.133728,-0.069885 0.456909,-0.312103 0.530426,-0.365524c0.075745,-0.053101 0.189453,-0.295258 0.133728,-0.332245c-0.055664,-0.03299 -0.338745,0 -0.381165,-0.053528c-0.037872,-0.049042 -0.037872,-0.122986 0.153839,-0.242218c0.189453,-0.123032 0.283051,-0.299606 0.358826,-0.352997c0.075745,-0.049179 0.227264,-0.155869 0.285217,-0.27919c0.055756,-0.123138 -0.06012,-0.053223 -0.1716,-0.053223s-0.1716,-0.189011 -0.1716,-0.279053s0.285248,0.036789 0.494812,0.069489c0.209473,0.032959 0.113617,-0.086044 0.093597,-0.188538c-0.017853,-0.10675 0.037872,-0.283325 0.153748,-0.230057c0.111481,0.053406 0.699799,-0.016342 0.775635,-0.032623c0.075745,-0.020645 0.28299,-0.332718 0.358826,-0.423172c0.077911,-0.086044 0.093475,-0.17218 0,-0.225586c-0.093689,-0.053314 -0.207245,-0.246201 -0.245178,-0.295532c-0.037903,-0.053345 -0.055664,-0.369522 -0.017792,-0.455719c0.035645,-0.086395 0,0.505051 0.26297,0.574615c0.267303,0.070007 0.418976,0.106979 0.66626,-0.10257c0.24527,-0.209274 0.434662,-0.348862 0.454681,-0.48848c0.020081,-0.139496 0.075806,-0.283173 0.171661,-0.332611c0.093628,-0.049164 0.151581,0.139664 0.26532,-0.08609c0.113525,-0.230042 0.227173,-0.209335 0.340881,-0.402267c0.113617,-0.193176 -0.189392,-0.435211 0.035645,-0.578781c0.229584,-0.139633 0.62851,-0.31221 0.62851,-0.31221s0.113556,-0.053223 0.340973,-0.106537c0.227356,-0.049133 0.474792,-0.016647 0.550537,-0.11911c0.075836,-0.106522 0.151581,-0.332352 0.265137,-0.45578c0.115936,-0.123123 0.247437,-0.315796 0.189545,-0.402222c-0.055725,-0.086121 0.15152,-0.471985 0.133636,-0.578888c-0.02002,-0.1026 -0.189362,-0.348648 0.093628,-0.558289s0.588409,-0.525299 0.60849,-0.611389c0.017792,-0.086166 0.247375,-0.451736 0.225037,-0.628036c-0.017853,-0.176559 -0.225037,-0.386017 -0.358826,-0.439468c-0.133667,-0.04921 -0.416748,-0.065628 -0.530365,-0.205246s-0.436981,-0.279251 -0.550446,-0.24617c-0.113708,0.036926 -0.30542,0.069839 -0.457001,-0.020523c-0.15152,-0.082108 -0.39679,-0.193008 -0.492493,-0.258667c-0.095825,-0.069595 -0.340973,-0.123062 -0.454681,-0.123062s-0.095764,-0.069901 -0.265198,0.139633c-0.1716,0.209076 0,0.279083 -0.305328,0.242096c-0.305328,-0.028641 0.037964,-0.049286 0.2117,-0.258667c0.167145,-0.209351 -0.022247,-0.332565 -0.2117,-0.27919c-0.189484,0.053467 -0.055756,0.156128 -0.361084,0.209595c-0.300842,0.05307 -0.300842,-0.123367 -0.111389,-0.156128c0.189392,-0.036896 0.530365,-0.193069 0.530365,-0.262619c0,-0.069946 -0.037872,-0.262833 -0.189392,-0.262833s-0.113708,-0.17247 -0.340973,-0.398148c-0.227325,-0.230042 -0.512573,-0.369568 -0.742218,-0.336548c-0.225037,0.036789 -0.396729,0.086075 -0.510284,-0.102692c-0.113708,-0.193054 -0.247437,-0.225845 -0.3255,-0.332611c-0.073517,-0.102661 -0.265137,0 -0.323181,-0.049118s-0.055664,-0.053543 -0.055664,-0.053543s-0.247345,0.053543 -0.113617,-0.106674c0.1315,-0.155991 0.189392,-0.45549 0.1315,-0.435074c-0.055756,0.016403 -0.151611,0.262665 -0.245148,0.246216c-0.093597,-0.020493 -0.020081,-0.053207 -0.209534,-0.16011c-0.189484,-0.102661 -0.492493,-0.016357 -0.492493,0.069901c0,0.09021 -0.095856,0.160034 -0.095856,0.160034s-0.055725,-0.053375 -0.113708,-0.160034c-0.055664,-0.102585 -0.323181,-0.119095 -0.454681,-0.016479c-0.131409,0.106689 -0.207245,-0.262665 -0.303009,-0.262665s-0.283081,0.086121 -0.378937,0.246185c-0.093597,0.156036 -0.055725,0.385941 -0.135956,0.365356c-0.071381,-0.016327 -0.09137,-0.311951 -0.071381,-0.418655c0.017883,-0.106766 0.225128,-0.279068 0.071381,-0.31601c-0.149261,-0.032974 -0.376617,0.176544 -0.470245,0.192764c-0.095825,0.020615 -0.285309,0.139603 -0.398926,0.28334c-0.113708,0.135376 -0.169464,0.225922 -0.285309,0.279144c-0.11142,0.049316 -0.280762,0 -0.242828,-0.053223c0.035645,-0.053574 -0.3255,-0.246384 -0.381226,-0.176682c-0.06012,0.069748 -0.227356,0.123108 -0.398804,0.192993c-0.169434,0.069672 -0.323242,-0.086319 -0.361145,-0.156036s-0.113708,-0.086197 -0.13147,-0.31604c-0.020111,-0.225708 0.037872,-0.472183 0.093536,-0.607559c0.055817,-0.139557 -0.28302,-0.422806 -0.416748,-0.406448c-0.133728,0.020538 -0.265198,0.143814 -0.396606,0.123108c-0.136047,-0.016235 -0.075836,-0.049316 -0.285339,-0.049316c-0.209534,0 -0.037933,-0.036819 0,-0.192719c0.035645,-0.156006 -0.075806,-0.369537 0.133728,-0.509155c0.207245,-0.139587 0.133728,-0.472031 0,-0.488541c-0.133728,-0.016296 -0.381073,0.053513 -0.550507,0.036987c-0.169312,-0.020477 -0.303101,0.12326 -0.247375,0.279144c0.057983,0.156021 -0.093597,0.262863 -0.151489,0.246384c-0.055756,-0.020462 -0.131592,-0.106781 -0.341064,0.03273c-0.207245,0.139694 -0.28299,0.086258 -0.492493,-0.069717c-0.209534,-0.159988 -0.436798,-0.316132 -0.474762,-0.558319c-0.037872,-0.246216 -0.057983,-0.488388 0.020081,-0.632156c0.073517,-0.139603 0.073517,-0.38179 -0.0401,-0.418777c-0.113708,-0.032715 0.131409,-0.209305 0.265228,-0.242157c0.133636,-0.037094 0.340973,-0.192947 0.378845,-0.262787c0.0401,-0.069656 0.229584,-0.053299 0.436829,-0.053299c0.209473,0 0.247437,0 0.454681,0.102615c0.209473,0.106689 0.247345,-0.049316 0.247345,-0.102615c0,-0.053329 0.075836,-0.155853 0.303101,-0.13945c0.229553,0.016312 0.550537,-0.069855 0.608429,-0.016403s0.169434,0.258469 0.28299,0.188644c0.115936,-0.06572 0.151581,-0.188644 0.191772,0.020508c0.035645,0.209473 0.131409,0.52565 0.303101,0.578964c0.169434,0.049316 0.075745,0.258499 0.245117,0.275055c0.169373,0.020432 0.249603,-0.328369 0.19162,-0.451675c-0.057892,-0.123138 -0.1716,-0.488571 -0.267303,-0.574509c-0.093689,-0.090439 -0.093689,-0.316193 0.093475,-0.386108c0.189453,-0.069687 0.646362,-0.418625 0.777863,-0.521271c0.133636,-0.106705 0.492493,-0.197128 0.381073,-0.336731c-0.113708,-0.139496 -0.151489,-0.225754 -0.151489,-0.332382s0.113617,-0.069748 0.169373,0s0.285217,-0.10257 0.227325,-0.192947c-0.055725,-0.082077 -0.037964,-0.205246 0.095856,-0.188797c0.1315,0.016434 0.169373,-0.090286 0.113617,-0.16011c-0.057953,-0.069763 0.1315,-0.156067 0.265167,-0.123123c0.133698,0.036819 0.474762,-0.016388 0.532745,-0.086197c0.053497,-0.069733 -0.115967,-0.139557 -0.115967,-0.279221c0,-0.139603 0.227356,-0.262741 0.361084,-0.279175c0.133728,-0.016342 0.303009,0 0.32312,-0.053299c0.017853,-0.053406 0.209534,-0.192993 0.227417,-0.069733c0.020081,0.123032 0,0.332489 0.151489,0.332489c0.151581,0 0.338837,-0.156052 0.396729,-0.172485c0.055664,-0.020538 0.419037,-0.090271 0.494781,-0.10675c0.075836,-0.016403 0.530365,-0.053253 0.474792,-0.172318c-0.057983,-0.123154 -0.1138,-0.246231 -0.174011,-0.299744c-0.055664,-0.049253 -0.111389,0.020508 -0.189392,0.106888c-0.073517,0.08609 -0.209473,0.08609 -0.245117,0.01622c-0.037872,-0.065582 0.017853,-0.279005 -0.113708,-0.209379c-0.133728,0.069824 -0.15152,0.139784 -0.229492,0.106779c-0.075745,-0.036955 -0.149353,-0.160017 -0.149353,-0.160017s0.187164,-0.086212 0.053497,-0.242249c-0.1315,-0.160156 -0.320953,-0.123169 -0.510406,-0.032791c-0.189392,0.086182 -0.1716,0.065659 -0.398956,0.119049s-0.340881,0.106766 -0.340881,0.106766s0.305237,-0.176559 0.436829,-0.283234c0.131409,-0.102661 0.305237,-0.156082 0.416718,-0.258698c0.113708,-0.106796 0.416809,0.049271 0.416809,0.049271s0.153717,-0.139587 0.153717,-0.049271s-0.040161,0.311951 0.073608,0.311951c0.115784,0 0.436737,-0.139542 0.307556,-0.176529c-0.136017,-0.032806 0.187164,0 0.318573,-0.086151c0.136047,-0.086258 0.283173,-0.086258 0.361145,-0.119141c0.075745,-0.036926 0.135956,-0.192871 0.265228,-0.192871c0.135864,0 0.191681,0.155945 0,0.262741s-0.207336,0.365372 -0.303192,0.435165c-0.093597,0.069778 -0.037781,0.155991 0.113708,0.139603c0.15152,-0.01651 0.283081,0.016388 0.419037,-0.01651s0.207184,0.032898 0.245148,0.086136c0.037781,0.053558 0.151581,-0.053238 0.151581,-0.053238s0.247345,-0.049225 0.323181,0.037003c0.077911,0.08606 0.133667,-0.053391 0.077911,-0.139664c-0.057892,-0.086197 -0.135864,-0.172379 -0.19162,-0.279114c-0.055725,-0.106766 -0.1315,-0.139679 -0.283081,-0.106766c-0.151581,0.03688 -0.189392,-0.032913 -0.285217,-0.086136c-0.093719,-0.053467 -0.171692,0.069794 -0.093719,-0.053467c0.078156,-0.118958 0.1138,-0.15593 0.169464,-0.26265c0.057892,-0.102615 0.305328,-0.295624 0.057892,-0.348953c-0.247437,-0.053314 -0.32312,-0.086121 -0.360992,-0.192856c-0.037872,-0.102737 -0.323181,-0.295761 -0.39679,-0.295761c-0.077972,0 -0.340973,0 -0.360992,-0.086105c-0.017761,-0.090332 -0.209473,-0.27916 -0.303101,-0.369385c-0.093597,-0.086304 -0.456909,-0.472122 -0.512634,-0.504929c-0.057831,-0.037033 -0.133667,-0.020599 -0.305267,0.192932c-0.169434,0.209351 -0.321014,0.246338 -0.454681,0.192871c-0.133636,-0.053329 -0.151581,-0.03685 -0.28299,-0.176605c-0.135956,-0.13945 0.131409,-0.155945 0.075745,-0.246231c-0.057953,-0.082047 -0.361053,-0.119019 -0.550507,-0.139465c-0.189484,-0.016525 -0.32312,-0.209396 -0.608429,-0.22583c-0.283081,-0.016373 -0.624054,0.036942 -0.719818,0.036942c-0.093719,0 -0.093719,0.119095 -0.1315,0.311966c-0.0401,0.192932 0.1315,0.246353 -0.0401,0.279175c-0.169464,0.036972 -0.245209,0.053391 -0.075836,0.123199c0.171661,0.069672 0.398926,0.348877 0.398926,0.348877s0,0.160141 -0.133728,0.246338c-0.131409,0.086258 -0.265198,0.176514 -0.340973,0.069733c-0.078064,-0.102615 -0.285309,-0.086166 -0.225098,0.020493c0.055664,0.102753 0.169373,0.156067 0.169373,0.262726c0,0.102783 0.169373,0.365356 0.055725,0.451447c-0.113708,0.086319 -0.245178,0.020599 -0.338806,0.037186s-0.19162,-0.143799 -0.115875,-0.176605c0.075684,-0.037018 -0.020081,-0.295578 -0.020081,-0.295578s-0.225037,0.295578 -0.207184,0.139587c0.02002,-0.160049 -0.093597,-0.176529 -0.093597,-0.299713c0,-0.123016 -0.115936,-0.172302 -0.285309,-0.139542c-0.171692,0.036987 -0.378937,-0.053482 -0.701965,-0.106735c-0.323273,-0.053299 -0.454773,-0.086227 -0.722137,-0.209335c-0.265228,-0.123123 -0.358826,-0.032898 -0.492645,-0.016357c-0.133728,0.016357 -0.075684,-0.246323 -0.247345,-0.27919c-0.169373,-0.036987 -0.262909,0.032867 -0.300873,-0.193085c-0.0401,-0.225662 0.055756,-0.279053 0.472534,-0.525284c0.416809,-0.246353 0.360992,-0.348953 0.684113,-0.385941c0.320953,-0.032806 0.474762,0.036987 0.474762,-0.04924s0.075775,-0.43924 0.075775,-0.26265s0.381073,0.184692 0.209564,0.307861c-0.169373,0.119064 -0.075775,0.139511 0.057892,0.139511c0.133728,0 0.378845,-0.123077 0.378845,-0.123077s0.303162,-0.12323 0.378998,-0.016434c0.077911,0.102631 0.077911,0.20932 0.211639,0.20932s0.416809,-0.139511 0.169373,-0.26265c-0.245117,-0.123367 -0.396729,-0.106827 -0.550446,-0.246384s-0.113647,-0.086166 -0.283081,-0.05336c-0.169373,0.036835 -0.169373,-0.049301 -0.229584,-0.049301s-0.15152,0.032928 -0.189453,-0.036972c-0.035645,-0.069748 0.020081,-0.086105 0.2117,-0.086105c0.189545,0 0.41687,0.053329 0.41687,0.053329s0.227264,-0.069763 0.28302,-0.090347c0.057953,-0.016403 0.361053,-0.04921 0.303101,-0.2052c-0.057983,-0.160141 -0.245148,-0.160141 -0.303101,-0.213455s0.113617,-0.11908 0.209473,-0.156052c0.093628,-0.032715 0.361053,0 0.361053,0s0.169373,0.016495 0.169373,-0.053406s-0.0401,-0.155899 0.075836,-0.102509s0,0.20932 0.169373,0.172409c0.169373,-0.032867 0.209412,0 0.303009,0.053268c0.095856,0.053467 -0.017761,0.262863 -0.111389,0.299744c-0.095856,0.032806 -0.247345,0.102585 -0.037872,0.119019c0.209473,0.020538 0.358826,0.020538 0.358826,0.020538s0.133728,-0.12323 0.191711,-0.229813c0.055725,-0.102692 0.151428,-0.032898 0.225006,0c0.075836,0.032776 0.361084,0.090256 0.095795,0.160172c-0.267303,0.069641 -0.323029,0.155869 -0.381012,0.24205c-0.053497,0.090317 -0.075745,0.139465 -0.320953,0.090317c-0.249512,-0.053314 -0.381073,-0.036987 -0.436829,0.049149c-0.057892,0.086349 -0.02002,0.369507 0.075836,0.332672c0.093536,-0.032776 0.189301,-0.032776 0.303009,-0.069763c0.113708,-0.032867 0.570709,0.036987 0.682037,0.016342c0.113617,-0.016342 0.305328,0.176498 0.363281,0.143616c0.055664,-0.036819 0.169373,0.069855 0.28302,0.139679c0.113617,0.069748 0.075836,-0.160187 0.283081,-0.020569c0.209473,0.139557 0.095764,0.139557 0.209473,0.139557c0.111389,0 0.360992,0.020584 0.360992,0.020584s0.020081,-0.176559 0.209625,-0.139572c0.189301,0.03273 0.356537,0.225784 0.338745,0.086227c-0.017944,-0.139709 0.017792,-0.246414 -0.1315,-0.348877c-0.151581,-0.106827 -0.39679,-0.176575 -0.436798,-0.230057c-0.037903,-0.049194 -0.075836,-0.118988 -0.020203,-0.155975c0.057983,-0.032776 0.323212,0.016495 0.474792,0.106781c0.151581,0.086197 0.285217,0.172424 0.398956,0.102676c0.11145,-0.069809 0.247345,-0.102676 0.30307,-0.155975c0.055756,-0.053482 0.189392,-0.209457 0.189392,-0.209457s-0.570465,-0.069763 -0.644073,-0.156036c-0.077972,-0.090164 -0.343201,-0.209259 -0.418945,-0.209259s-0.28299,0.119095 -0.358826,-0.053467s-0.075775,-0.385834 -0.153839,-0.402191c-0.073608,-0.016434 -0.871399,-0.123245 -0.985046,-0.176422c-0.113708,-0.053467 -0.568298,-0.172455 -0.739899,-0.262894s-0.416809,-0.209274 -0.568329,-0.209274c-0.151581,0 -0.777771,0.069687 -0.891571,0.053314c-0.113556,-0.016449 -0.456848,0.032852 -0.588318,0.053375c-0.133728,0.016418 0.169434,0.242188 -0.113647,0.295685c-0.285156,0.053238 -0.247345,0.086136 -0.189453,-0.172485c0.055725,-0.262787 -0.19162,-0.332626 -0.436829,-0.229889c-0.247345,0.106689 -0.646301,0.176483 -0.550446,0.299713c0.095764,0.118988 -0.017792,0.20932 0.1716,0.332443c0.189392,0.119064 0.267456,0.155899 0.510345,0.139633c0.247437,-0.020569 0.494781,0.032745 0.494781,0.032745s0,0.209412 -0.093597,0.242233c-0.093628,0.036987 -0.247375,0.036987 -0.285248,0.143784c-0.037872,0.102478 -0.227325,0.155899 -0.227325,0.102478s0.095825,-0.225754 -0.037903,-0.316025c-0.13147,-0.086288 -0.171661,-0.102661 -0.323181,-0.016525c-0.151581,0.086288 -0.169373,0.123276 -0.245026,-0.016357c-0.078094,-0.139587 -0.30542,-0.262711 -0.30542,-0.262711s-0.151672,-0.172379 -0.265228,-0.262711c-0.111389,-0.086136 -0.321014,-0.069824 -0.340973,0.020508c-0.02002,0.086136 0.037872,0.172394 0.113647,0.332581c0.075745,0.155899 0.151428,0.451553 0.017761,0.472c-0.131409,0.016434 -0.151428,0.032761 -0.285217,0.069717c-0.1315,0.032944 -0.189453,-0.053284 -0.189453,-0.192917s-0.057892,-0.262589 -0.017883,-0.316055c0.037964,-0.053314 -0.151489,0.036987 -0.343201,0c-0.189301,-0.032745 -0.338745,0.069809 -0.151428,0.123154c0.189301,0.053391 0.229492,0.262863 0.057892,0.316101c-0.1716,0.04924 -0.817963,0 -1.025238,0s-0.512634,0.04924 -0.570526,-0.053238c-0.055756,-0.106796 0.1716,-0.17244 0.303101,-0.17244c0.133728,0 0.530426,0.016342 0.684235,-0.17659c0.151428,-0.192932 -0.191772,-0.225769 -0.341034,-0.225769c-0.15152,0 -0.267456,-0.053391 -0.436829,-0.209412c-0.1716,-0.160049 0.113617,-0.262726 0.075745,-0.33252c-0.037872,-0.069809 -0.227325,-0.020508 -0.396698,-0.020508c-0.171539,0 -0.436737,-0.119064 -0.436737,0.020508c0,0.139587 0.207306,0.541931 0.075745,0.451523c-0.133728,-0.086136 -0.113708,-0.209259 -0.209564,-0.311935c-0.095856,-0.10672 -0.245117,-0.090302 -0.436737,-0.069794c-0.187225,0.016495 -0.510406,0.069794 -0.606354,0.049301c-0.093536,-0.016434 -0.017761,-0.016434 -0.227264,-0.102585c-0.207245,-0.090332 -0.303009,-0.069794 -0.456818,-0.160248c-0.149353,-0.08609 -0.015625,-0.122971 -0.283081,-0.139496c-0.262909,-0.016403 -0.245117,0.123199 -0.510345,0.086227c-0.265228,-0.032822 -0.341064,0.020447 -0.608521,0c-0.265137,-0.016418 -0.396606,-0.032822 -0.436737,0.090286c-0.035645,0.119064 -0.113708,0.332611 -0.227417,0.332611c-0.111389,0 -0.247284,0.118988 0.113708,0.139496c0.361084,0.016403 0.153839,0.172394 0.474792,0.156082c0.323029,-0.016541 0.608429,-0.016541 0.684174,-0.156082c0.075745,-0.139496 0.133728,-0.139496 0.171692,-0.090332c0.035553,0.053497 0.32077,0.365509 0.32077,0.365509s0.191711,0.143616 0.267548,0.176331c0.073517,0.036972 -0.075836,0.193039 -0.229645,0.10675c-0.15152,-0.090256 -0.434601,-0.069778 -0.550476,-0.155945c-0.113617,-0.090302 -0.62619,-0.090302 -0.75769,-0.069733c-0.1315,0.016266 -0.361053,-0.053528 -0.43689,-0.053528c-0.075745,0 -0.323029,0.172455 -0.323029,0.172455s-0.095947,-0.139496 -0.151581,-0.209305c-0.055756,-0.069809 -0.151672,0.069809 -0.227448,0.086182c-0.075745,0.020462 -0.30307,-0.139587 -0.530334,-0.069809c-0.229675,0.069809 -0.153839,0.139526 -0.474701,0.123245s-0.398956,-0.069809 -0.512665,-0.053436c-0.115936,0.020462 -0.115936,0.020462 -0.115936,0.020462s0.020081,0.069946 -0.111389,0.139633c-0.133728,0.069778 -0.229584,0.156067 -0.325439,0.049316c-0.091309,-0.102661 -0.149261,-0.102661 -0.207245,-0.119003c-0.057892,-0.020691 -0.1716,-0.106781 -0.416718,-0.057526c-0.247437,0.057526 -0.626282,-0.065674 -0.702057,-0.065674c-0.057892,0 -0.456818,-0.020416 -0.715515,-0.045212c3.080078,-3.082901 7.4841,-5.032806 12.382751,-5.032806c3.106781,0 6.013,0.792236 8.515747,2.151154c-0.171509,0.09845 -0.467896,0.082016 -0.568237,0.032669c-0.113617,-0.061493 -0.229492,-0.106644 -0.693176,-0.081955c-0.46344,0.020462 -0.97171,0.164124 -0.86908,0.303726c0.104675,0.139557 -0.207275,0.221863 -0.287567,0.151871c-0.0802,-0.069809 -0.452454,0.078003 -0.427887,0.221649c0.022339,0.139572 -0.057892,0.299667 -0.256287,0.266846c-0.196167,-0.036987 -0.334259,0.082123 -0.34552,0.19722c-0.011078,0.114807 -0.452362,0.19693 -0.48587,0.19693c-0.033386,0 -0.601624,-0.012299 -0.394318,0.127304c0.142578,0.094315 0.220581,0.036835 0.394318,0.069672c0.17392,0.036987 0.314423,0.291473 0.405731,0.328476c0.089142,0.032806 0.218414,0 0.276306,-0.069824c0.057983,-0.069931 0.138123,-0.316071 0.138123,-0.316071s0,0.233978 0.142731,0.279251c0.138092,0.049149 0.481384,-0.033112 0.575012,-0.020615c0.093597,0.008209 0.639587,0.082123 0.786652,0.147797c0.151581,0.069763 0.519257,0.118912 0.624115,0.270905c0.104706,0.151886 0.118103,0.673218 0.173767,0.730789c0.060211,0.061508 0.25412,-0.184875 0.300842,-0.242203c0.044586,-0.061783 0.289856,-0.024796 0.370087,0.057327c0.082458,0.08226 0.267365,0.27916 0.256226,0.361328c-0.015656,0.082016 -0.048981,0.20929 -0.115967,0.16423c-0.071289,-0.045242 -0.187073,-0.032928 -0.140259,-0.127258c0.046814,-0.094528 0.06897,-0.295639 -0.022339,-0.295639c-0.093597,0 -0.173828,0 -0.173828,0s-0.176147,-0.045181 -0.291992,0.131454s-0.02002,0.348801 0.060181,0.348801s0.267456,0 0.267456,0.045151c0,0.045166 -0.198303,0.184738 -0.187225,0.266846c0.013397,0.082169 0.160522,0.361252 0.211792,0.422821c0.044586,0.057541 0.287384,0.115021 0.356445,0.127289c0.071381,0.012207 -0.162598,0.024536 -0.102386,0.102615c0.057892,0.082153 0.149261,0.283234 0.276306,0.328445c0.127014,0.045135 0.485931,0.254486 0.528198,0.348877c0.046875,0.094421 0.325409,-0.069794 0.383392,-0.082169c0.057892,-0.008057 0.046814,0.246323 0.209473,0.258698c0.160431,0.008194 0.218414,-0.024734 0.356537,-0.131256s0.107086,-0.242279 0.115936,-0.349014c0.013397,-0.102676 0,-0.184769 0.151581,-0.151962c0.153839,0.036987 0.231812,-0.024582 0.220734,-0.139465c-0.013489,-0.114929 -0.140503,-0.258728 0.102448,-0.291489c0.242889,-0.037018 0.369934,-0.184784 0.519287,-0.184784c0.15152,0 0.568298,0.057465 0.612885,0c0.046814,-0.057449 0.245117,-0.328415 0.372162,-0.340714c0.095917,-0.008194 0.325409,-0.024551 0.561615,-0.053284c2.311127,2.532761 3.739746,5.763502 3.904755,9.28546c-0.17392,0.213501 -0.017944,0.410538 0.028931,0.550095c0.002228,0.041168 0.00885,0.077942 0.00885,0.119125c0,0.180557 -0.024475,0.361328 -0.031158,0.541763c-0.002258,0.004166 -0.002258,0.008331 -0.004486,0.008331zm-14.192352,-5.816879c-0.091309,0.016373 -0.245117,-0.069778 -0.245117,-0.192902s-0.133728,0.22583 -0.057983,0.33255c0.075745,0.102539 -0.153748,0.225662 -0.227356,0.225662s-0.133636,-0.155945 -0.113525,-0.311951c0.019989,-0.160141 -0.113708,-0.299652 -0.323273,-0.279236c-0.209473,0.016571 -0.303101,0.172409 -0.378845,0.225876c-0.078003,0.05336 -0.078003,0.348907 -0.057892,0.418671s0.019989,0.316193 -0.169373,0.299667c-0.1716,-0.020477 -0.133728,-0.316162 -0.115967,-0.422882c0.020111,-0.102539 -0.055634,-0.365234 0.020111,-0.504761c0.078064,-0.139648 0.303009,-0.193022 0.456848,-0.209455s0.472443,0.086226 0.530426,0.069807c0.057953,-0.016417 0.32312,-0.016417 0.45459,0c0.13382,0.016418 0.321045,0.328293 0.227356,0.348953zm0.341034,0.049133c0.057983,0.036865 0.45462,-0.049133 0.532684,0.036865c0.073517,0.086441 -0.080292,0.106918 -0.267456,0.17662c-0.189392,0.069946 -0.247437,0.049393 -0.323181,0.139557s-0.323181,0.119095 -0.436829,0.225952c-0.113708,0.106735 -0.316559,0.168274 -0.358826,0.086166c-0.057892,-0.106873 0.017853,-0.053406 0.035706,-0.106873c0.02002,-0.049194 0.358765,-0.172363 0.358765,-0.172363s0.403412,-0.418686 0.459137,-0.385925zm-1.517761,-0.611509c-0.055756,0.020569 -0.265228,-0.032974 -0.436829,-0.032974c-0.169373,0 -0.133728,-0.10672 -0.209473,-0.086014c-0.073547,0.016281 -0.245209,0.053268 -0.360992,0.1026c-0.113708,0.053345 -0.303192,0.04097 -0.303192,-0.053467c0,-0.139618 0.075836,-0.102615 0.32312,-0.19281c0.245209,-0.086227 0.512665,-0.328476 0.626434,-0.2258c0.113556,0.106705 0.323029,0.2258 0.454529,0.246201c0.133728,0.016541 -0.037964,0.225876 -0.093597,0.242264zm-1.941162,-5.422684c-0.113617,0.036804 -0.505951,0.188797 -0.468079,0.270859c0.013336,0.028671 0.113739,0.090393 0.276398,0.069794c0.164917,-0.024628 0.40332,-0.049301 0.519257,-0.057404c0.113739,-0.01239 0.138214,-0.188904 0.013397,-0.201294c-0.127106,-0.008148 -0.227325,-0.114899 -0.340973,-0.081955zm-1.404053,0.143616c-0.086914,0.032959 -0.35437,-0.061661 -0.492584,0.020493c-0.089203,0.053329 -0.037872,0.221603 0.102478,0.233963c0.138275,0.012436 0.378937,-0.082047 0.403412,-0.01236c0.026794,0.069809 0.113708,0.386047 0.340973,0.279236c0.227356,-0.102646 0.213959,-0.197067 0.278625,-0.209427c0.062439,-0.012207 -0.013397,-0.266724 -0.115875,-0.324265c-0.100311,-0.057449 -0.427979,-0.024673 -0.517029,0.01236zm-0.45694,-0.993576c0.024506,0.061829 -0.011078,0.106796 0.164917,0.131577c0.178314,0.020523 0.254059,0.045013 0.356689,0.045013c0.10022,0 0.06012,-0.151794 -0.026886,-0.254379c-0.08905,-0.106812 -0.062347,-0.094345 -0.291931,-0.151947c-0.227325,-0.057495 -0.45459,-0.057495 -0.606171,-0.049194c-0.15152,0.012192 -0.316498,-0.020615 -0.35437,0.13945c-0.02002,0.086319 0.10022,0.151978 0.254028,0.151978s0.479187,-0.069824 0.503723,-0.012497zm0.329834,0.640549c0.064575,0.131348 0.064575,0.069794 0.24295,0.082001c0.17392,0.012466 0.314178,-0.159988 0.325348,-0.217438c0.013489,-0.061508 -0.089142,-0.17659 -0.327637,-0.151932c-0.240662,0.02063 -0.973877,-0.036972 -1.074219,0.045151c-0.098053,0.077927 0,0.312012 -0.037872,0.336685c-0.037872,0.024506 0.011169,0.127136 0.111481,0.106674c0.10025,-0.024673 0.151581,-0.246429 0.229492,-0.246429c0.075775,0 0.468018,-0.082016 0.530457,0.045288zm-2.37796,-0.476196c0.075745,0.057419 0.267365,0.012238 0.25174,-0.04509c-0.011169,-0.061615 0.078064,-0.295578 -0.073517,-0.303864c-0.15152,-0.012329 -0.36554,0.127274 -0.595032,0.197098c-0.147125,0.045151 -0.113617,0.176437 -0.013397,0.176437s0.35437,-0.082138 0.430206,-0.024582zm1.078644,0.209457c-0.127014,0.057388 -0.167145,0.094315 -0.280853,0.069794c-0.113708,-0.020615 -0.113708,-0.209412 -0.316467,-0.172577c-0.200562,0.033035 -0.238434,0.139465 -0.303101,0.184769s-0.202789,0.082138 -0.251831,0.057449c-0.04895,-0.020493 -0.340973,-0.172409 -0.340973,-0.172409s-0.608429,-0.024628 -0.632904,-0.094421c-0.024567,-0.069824 -0.124878,-0.184586 -0.405731,-0.164124s-0.75769,0.176468 -0.833527,0.176468c-0.075745,0 0.089233,0.139572 -0.013397,0.139572c-0.102448,0 -0.227264,-0.012329 -0.265137,0.094421c-0.026703,0.069809 0.113647,0.069809 0.276306,0.069809c0.162842,0 0.430206,0 0.505951,-0.036987c0.075836,-0.032822 0.456848,-0.115082 0.443542,-0.012329c-0.013336,0.106674 0.151581,0.266891 0.238495,0.246277c0.089142,-0.024506 0.267365,-0.176468 0.356506,-0.114853c0.089172,0.057419 0.10257,0.197021 0.189545,0.229843c0.089081,0.036942 0.329742,0.036942 0.443451,0c0.113708,-0.032822 0.430206,-0.032822 0.568298,-0.01236c0.138214,0.024612 0.543762,0.094391 0.581635,0.024612c0.040192,-0.069748 0.1539,-0.082047 0.164917,-0.151749s0.073608,-0.287537 0.073608,-0.287537s-0.073608,-0.131271 -0.198334,-0.073669zm6.403046,12.048079c-0.173828,0.028702 -0.1315,0.340775 0.075684,0.283539c0.209534,-0.057693 0.098145,-0.31221 -0.075684,-0.283539zm1.65152,-0.414474c-0.151611,-0.036942 -0.323212,0 -0.43692,0.016434c-0.113708,0.016281 -0.436798,0.279022 -0.436798,0.279022s0.209534,0.036957 0.340973,0.036957c0.133698,0 0.209534,0.065689 0.320953,0.119049c0.115936,0.053421 0.323181,-0.069672 0.398926,-0.069672c0.075836,0 0.171692,0.209274 0.191711,-0.016556c0.02002,-0.229782 -0.227264,-0.33252 -0.378845,-0.365234zm-5.286499,-11.329878c-0.062378,-0.139603 -0.378937,-0.18895 -0.443542,-0.049301c-0.055725,0.123077 0.505951,0.188782 0.443542,0.049301zm3.617188,10.471983c0.209412,-0.037018 0.093475,-0.193008 -0.075897,-0.176605c-0.173767,0.020584 -0.133667,0.209244 0.075897,0.176605zm2.522766,1.079712c-0.173767,0.028641 -0.133575,0.340469 0.075928,0.283066c0.209473,-0.057419 0.095764,-0.311996 -0.075928,-0.283066zm-2.297729,-0.521484c-0.131561,0.016296 -0.41449,-0.11908 -0.568237,-0.242188c-0.151672,-0.123184 -0.43689,-0.123184 -0.550537,-0.123184c-0.111389,0 -0.568298,0.123184 -0.568298,0.123184c-0.020111,0.172348 0.169373,0.118988 0.398926,0.118988s0.626221,-0.032867 0.699829,0.05336c0.075745,0.086136 0.416779,0.225723 0.512634,0.299713c0.093536,0.069794 0.398865,0.086227 0.416748,0.016281s-0.207336,-0.262589 -0.341064,-0.246155zm-2.262085,-11.157499c-0.189484,-0.012314 -0.430206,-0.012314 -0.581726,0c-0.151581,0.008194 -0.267365,-0.094452 -0.381073,-0.151917c-0.111481,-0.057495 -0.36554,-0.246231 -0.517029,-0.266754c-0.15152,-0.02478 -0.124817,-0.02478 -0.441284,-0.09462c-0.160522,-0.036957 -0.430145,-0.081924 -0.430145,-0.114746c0,-0.036987 -0.075897,0.16008 0.062378,0.221542c0.140411,0.057648 0.367767,0.160309 0.530518,0.221771c0.167053,0.057465 0.481384,0.069778 0.583771,0.184723c0.100311,0.11496 0.441284,0.209274 0.441284,0.209274l0.40564,0.036972c0,0 0.278687,-0.057495 0.568329,-0.036972c0.291992,0.024796 0.719879,0.057495 0.962769,0.049301c0.238525,-0.012329 0.276398,-0.082108 0.30542,-0.127319c0.022247,-0.04924 -0.44574,-0.14357 -0.559448,-0.131256c-0.111481,0.008194 -0.759949,0.008194 -0.949402,0zm0.706512,2.680496c-0.049042,0.049332 0.229553,0.127365 0.280762,0.057587c0.049103,-0.069855 -0.149353,-0.188919 -0.280762,-0.057587zm0.851288,0.242264c0.124878,-0.049255 0.062439,-0.188873 -0.115845,-0.139648c-0.200623,0.053406 -0.013397,0.184814 0.115845,0.139648z" stroke-linecap="null" stroke-linejoin="null" stroke-dasharray="null" stroke="#000000" fill="#007f00"/>
  <path class="sec3" transform="rotate(-90, 31.7793, 93.4941)" id="svg_7" d="m-2.220238,93.495033l14.571747,-29.142242l38.855225,0l14.569153,29.142242l-14.569153,29.14109l-38.855225,0l-14.571747,-29.14109z" stroke-linecap="null" stroke-linejoin="null" stroke-dasharray="null" stroke-width="null" stroke="#000000" fill="#0000ff"/>
  <path transform="rotate(-90, 93.6934, 94.2734)" id="svg_10" d="m59.694344,94.273384l14.571747,-29.142242l38.855225,0l14.569153,29.142242l-14.569153,29.14109l-38.855225,0l-14.571747,-29.14109z" stroke-linecap="null" stroke-linejoin="null" stroke-dasharray="null" stroke-width="null" stroke="#000000" fill="#7fff00"/>
  <path class="radioFreq" transform="rotate(14.4003, 97.0879, 94.2715)" id="svg_5" d="m79.095589,95.405434c4.494324,0 8.721039,1.760086 11.893982,4.950775c3.184021,3.195557 4.933136,7.448853 4.933136,11.978714l6.927399,0c0,-13.155197 -10.657288,-23.854828 -23.756714,-23.854828l0,6.925339l0.002197,0zm0.008789,-12.27739c16.02298,0 29.055573,13.106415 29.055573,29.21347l6.927399,0c0,-19.926422 -16.143219,-36.138733 -35.985168,-36.138733l0,6.925262l0.002197,0zm9.579071,24.371597c0,2.651962 -2.147949,4.802063 -4.797333,4.802063s-4.79718,-2.150101 -4.79718,-4.802063c0,-2.64679 2.147705,-4.794769 4.79718,-4.794769s4.797333,2.14798 4.797333,4.794769z" stroke-linecap="null" stroke-linejoin="null" stroke-dasharray="null" stroke="#000000" fill="#0000ff"/>
  <path class="flecha" transform="rotate(-90, 31.7773, 93.4961)" id="svg_1" d="m15.494637,99.048073c4.597778,-0.002106 15.179321,-0.042267 20.338196,-0.046417c0,1.925842 0,3.85141 0,5.777054c3.679535,-3.830505 7.359558,-7.661423 11.038605,-11.491943c-3.60553,-3.731583 -7.210999,-7.463028 -10.816498,-11.194687c-0.089386,1.776031 -0.177399,3.551804 -0.266754,5.327957c-6.722321,-0.043228 -13.451324,0.126816 -20.168823,-0.197556c0.069092,-8.49353 16.968079,-14.425446 24.018188,-9.351013c3.889404,2.897339 6.990479,6.692505 8.177551,11.377487c0.347321,2.610062 0.276367,5.278458 0.066162,7.898697c-0.749359,4.281769 -3.52359,7.904846 -6.727234,10.557861c-2.302521,1.863388 -5.102997,3.180267 -8.059723,3.146576c-8.499878,1.094055 -14.021515,-4.108414 -17.59967,-11.804016l0,0z" stroke="#f9f2f2" fill="#ff7f00"/>
  <text class="nom" transform="rotate(1.20661, 63.4389, 125.958) matrix(0.580324, 0, 0, 0.422826, 149.824, 73.0626)" xml:space="preserve" text-anchor="middle" font-family="serif" font-size="24" id="svg_20" y="133.210822" x="-149.148697" stroke-linecap="null" stroke-linejoin="null" stroke-dasharray="null" stroke-width="0" stroke="#000000" fill="#000000">Edgar</text>
  <text class="app" transform="matrix(0.711028, 0, 0, 0.459696, 110.113, 105.588)" xml:space="preserve" text-anchor="middle" font-family="serif" font-size="24" id="svg_21" y="71.958713" x="-65.610664" stroke-linecap="null" stroke-linejoin="null" stroke-dasharray="null" stroke-width="0" stroke="#000000" fill="#000000">Llanque</text>
 </g>
</svg>